# xmcd
#
# Track frame offsets: 
#        150
#        20311
#        36629
#        55719
#        75402
#        91449
#        109334
#        132751
#        153894
#        172001
#
# Disc length: 2547 seconds
#
# Revision: 0
# Processed by: cddbd v1.5.2PL0 Copyright (c) Steve Scherf et al.
# Submitted via: ExactAudioCopy v1.0b6
#
DISCID=7709f10a
DTITLE=Tee Dee Young - Born with the Blues
DYEAR=2014
DGENRE=Blues Rock
TTITLE0=Devil Keeps Talking To Me
TTITLE1=It's Raining Cats and Dogs
TTITLE2=Bye Bye Baby
TTITLE3=Girl I Told You 
TTITLE4=Play Me Some Blues
TTITLE5=Southern Soul Lady
TTITLE6=Guilty
TTITLE7=I'm A Broke Man
TTITLE8=Lonely Nights and Rainy Days
TTITLE9=Blues Fest
EXTD=
EXTT0=
EXTT1=
EXTT2=
EXTT3=
EXTT4=
EXTT5=
EXTT6=
EXTT7=
EXTT8=
EXTT9=
PLAYORDER=
